# xmcd
#
# Track frame offsets:
#	150
#	7516
#	18508
#	30302
#	45335
#	61252
#	87466
#	112568
#	134661
#	151880
#	171079
#	195051
#	207843
#	221107
#	233647
#	242585
#	257185
#	270358
#	290051
#	312155
#
# Disc length: 4430 seconds
#
# Revision: 1
# Processed by: cddbd v1.4PL0 Copyright (c) Steve Scherf et al.
# Submitted via: EasyCDDAExtractor 6.0.0.1
#
DISCID=fa114c14
DTITLE=comunidade s8 - 30 anos
DYEAR=1900
DGENRE=
TTITLE0=narração
TTITLE1=vem tu desperta
TTITLE2=o meu amado
TTITLE3=louvai ao Senhor
TTITLE4=quando as flores não mais existirem
TTITLE5=você precisa renascer
TTITLE6=cristo é como o sol de manhazinha
TTITLE7=o genesis
TTITLE8=jesus é a porta
TTITLE9=jesus é a salvação
TTITLE10=jesus querido
TTITLE11=jesus é amor
TTITLE12=enchei-vos do espirito santo
TTITLE13=nao andeis ociosos
TTITLE14=vida que nasce da morte
TTITLE15=minha vida mudou
TTITLE16=nele a gente pode confiar
TTITLE17=liberto
TTITLE18=a terra está fria
TTITLE19=pela liberdade
EXTD=
EXTT0=
EXTT1=
EXTT2=
EXTT3=
EXTT4=
EXTT5=
EXTT6=
EXTT7=
EXTT8=
EXTT9=
EXTT10=
EXTT11=
EXTT12=
EXTT13=
EXTT14=
EXTT15=
EXTT16=
EXTT17=
EXTT18=
EXTT19=
PLAYORDER=
